<svg width="34" height="34" viewBox="0 0 34 34" fill="none" xmlns="http://www.w3.org/2000/svg">
<g clip-path="url(#clip0_452_230)">
<path d="M17 21.533C19.5037 21.533 21.5333 19.5034 21.5333 16.9997C21.5333 14.496 19.5037 12.4664 17 12.4664C14.4963 12.4664 12.4667 14.496 12.4667 16.9997C12.4667 19.5034 14.4963 21.533 17 21.533Z" fill="black"/>
<path d="M12.75 2.83331L10.1575 5.66665H5.66665C4.10831 5.66665 2.83331 6.94165 2.83331 8.49998V25.5C2.83331 27.0583 4.10831 28.3333 5.66665 28.3333H28.3333C29.8916 28.3333 31.1666 27.0583 31.1666 25.5V8.49998C31.1666 6.94165 29.8916 5.66665 28.3333 5.66665H23.8425L21.25 2.83331H12.75ZM17 24.0833C13.09 24.0833 9.91665 20.91 9.91665 17C9.91665 13.09 13.09 9.91665 17 9.91665C20.91 9.91665 24.0833 13.09 24.0833 17C24.0833 20.91 20.91 24.0833 17 24.0833Z" fill="black"/>
<circle cx="4.5" cy="27.5" r="4.95" fill="#222222" stroke="white" stroke-width="1.1"/>
<path d="M4.76857 27.1147H6.73439V27.7324H4.76857V30.3159H4.16163V27.7324H2.22804V27.1147H4.16163V24.6226H4.76857V27.1147Z" fill="#FAFAFA"/>
</g>
<defs>
<clipPath id="clip0_452_230">
<rect width="34" height="34" fill="white"/>
</clipPath>
</defs>
</svg>
